<svg width="50" height="50" viewBox="0 0 512 512" fill="none" xmlns="http://www.w3.org/2000/svg">
<g clip-path="url(#clip0_8_668)">
<path d="M253.755 111.629C255.797 111.625 257.836 111.589 259.877 111.551C268.481 111.525 274.335 111.974 281.023 117.746C281.692 118.583 281.692 118.583 282.375 119.437C283.067 120.271 283.067 120.271 283.773 121.121C287.256 126.456 287.252 131.131 287.125 137.312C287.116 138.148 287.107 138.984 287.098 139.846C287.074 141.897 287.038 143.949 287 146C287.632 146.147 288.263 146.294 288.914 146.445C297.033 148.481 304.39 151.567 312 155C312.568 154.397 313.137 153.793 313.723 153.172C320.393 146.268 325.845 141.531 335.625 140.687C345.46 140.884 352.315 146.351 358.875 153.125C359.607 153.834 360.339 154.543 361.094 155.273C366.872 161.114 371.034 167.712 371.437 176.125C370.432 185.026 367.143 189.437 361.059 195.801C358.868 198.021 358.868 198.021 357 201C357.97 203.691 359.004 206.128 360.25 208.687C362.829 214.086 364.712 219.143 366 225C367.207 224.954 368.413 224.907 369.656 224.859C371.271 224.822 372.885 224.785 374.5 224.75C375.291 224.716 376.083 224.683 376.898 224.648C383.745 224.536 388.809 226.246 394.023 230.746C394.469 231.304 394.915 231.862 395.375 232.437C396.067 233.271 396.067 233.271 396.773 234.121C400.808 240.302 400.372 246.6 400.371 253.755C400.375 255.797 400.411 257.836 400.449 259.877C400.475 268.481 400.026 274.335 394.254 281.023C393.696 281.469 393.138 281.915 392.562 282.375C392.007 282.836 391.451 283.298 390.879 283.773C385.544 287.256 380.869 287.252 374.687 287.125C373.852 287.116 373.016 287.107 372.154 287.098C370.103 287.074 368.051 287.038 366 287C365.853 287.632 365.706 288.263 365.555 288.914C363.519 297.033 360.433 304.39 357 312C357.603 312.568 358.207 313.137 358.828 313.723C365.732 320.393 370.469 325.845 371.312 335.625C371.116 345.46 365.649 352.315 358.875 358.875C358.166 359.607 357.457 360.339 356.727 361.094C350.886 366.872 344.288 371.034 335.875 371.437C326.974 370.432 322.563 367.143 316.199 361.059C313.979 358.868 313.979 358.868 311 357C308.309 357.97 305.872 359.004 303.312 360.25C297.914 362.829 292.857 364.712 287 366C287.046 367.207 287.093 368.413 287.141 369.656C287.178 371.271 287.215 372.885 287.25 374.5C287.283 375.291 287.317 376.083 287.352 376.898C287.464 383.745 285.754 388.809 281.254 394.023C280.696 394.469 280.138 394.915 279.562 395.375C279.007 395.836 278.451 396.298 277.879 396.773C271.698 400.808 265.399 400.372 258.245 400.371C256.203 400.375 254.164 400.411 252.123 400.449C243.519 400.475 237.665 400.026 230.977 394.254C230.531 393.696 230.085 393.138 229.625 392.562C229.163 392.007 228.702 391.451 228.227 390.879C224.744 385.544 224.748 380.869 224.875 374.687C224.884 373.852 224.893 373.016 224.902 372.154C224.926 370.103 224.962 368.051 225 366C224.368 365.853 223.737 365.706 223.086 365.555C214.967 363.519 207.61 360.433 200 357C199.431 357.603 198.863 358.207 198.277 358.828C191.304 366.046 185.982 370.315 175.812 371.312C166.095 370.516 159.726 365.692 153.125 358.875C152.393 358.166 151.661 357.457 150.906 356.727C145.128 350.886 140.966 344.288 140.562 335.875C141.567 326.974 144.857 322.563 150.941 316.199C153.132 313.979 153.132 313.979 155 311C154.03 308.309 152.995 305.872 151.75 303.312C149.17 297.914 147.288 292.857 146 287C144.793 287.046 143.587 287.093 142.344 287.141C140.729 287.178 139.115 287.215 137.5 287.25C136.708 287.283 135.917 287.317 135.102 287.352C128.255 287.464 123.191 285.754 117.977 281.254C117.531 280.696 117.085 280.138 116.625 279.562C116.163 279.007 115.702 278.451 115.227 277.879C111.192 271.698 111.628 265.399 111.629 258.245C111.625 256.203 111.589 254.164 111.551 252.123C111.525 243.519 111.974 237.665 117.746 230.977C118.583 230.308 118.583 230.308 119.437 229.625C120.271 228.933 120.271 228.933 121.121 228.227C126.456 224.744 131.131 224.748 137.312 224.875C138.566 224.889 138.566 224.889 139.846 224.902C141.897 224.926 143.949 224.962 146 225C146.147 224.368 146.294 223.737 146.445 223.086C148.481 214.967 151.567 207.61 155 200C154.397 199.431 153.793 198.863 153.172 198.277C146.268 191.607 141.531 186.155 140.687 176.375C140.884 166.539 146.351 159.685 153.125 153.125C153.834 152.393 154.543 151.661 155.273 150.906C161.114 145.128 167.712 140.966 176.125 140.562C185.026 141.567 189.437 144.857 195.801 150.941C198.021 153.132 198.021 153.132 201 155C203.691 154.03 206.128 152.995 208.687 151.75C214.086 149.17 219.143 147.288 225 146C224.954 144.793 224.907 143.587 224.859 142.344C224.822 140.729 224.785 139.115 224.75 137.5C224.716 136.708 224.683 135.917 224.648 135.102C224.536 128.255 226.246 123.191 230.746 117.977C231.304 117.531 231.862 117.085 232.437 116.625C232.993 116.163 233.549 115.702 234.121 115.227C240.302 111.192 246.6 111.628 253.755 111.629Z" fill="#80D8E2"/>
<path d="M253.755 111.629C255.797 111.625 257.836 111.589 259.877 111.551C268.481 111.525 274.335 111.974 281.023 117.746C281.692 118.583 281.692 118.583 282.375 119.437C283.067 120.271 283.067 120.271 283.773 121.121C287.256 126.456 287.252 131.131 287.125 137.312C287.116 138.148 287.107 138.984 287.098 139.846C287.074 141.897 287.038 143.949 287 146C287.632 146.147 288.263 146.294 288.914 146.445C297.033 148.481 304.39 151.567 312 155C312.568 154.397 313.137 153.793 313.723 153.172C320.393 146.268 325.845 141.531 335.625 140.687C345.46 140.884 352.315 146.351 358.875 153.125C359.607 153.834 360.339 154.543 361.094 155.273C366.872 161.114 371.034 167.712 371.437 176.125C370.432 185.026 367.143 189.437 361.059 195.801C358.868 198.021 358.868 198.021 357 201C357.97 203.691 359.004 206.128 360.25 208.687C362.829 214.086 364.712 219.143 366 225C367.207 224.954 368.413 224.907 369.656 224.859C371.271 224.822 372.885 224.785 374.5 224.75C375.291 224.716 376.083 224.683 376.898 224.648C383.745 224.536 388.809 226.246 394.023 230.746C394.469 231.304 394.915 231.862 395.375 232.437C396.067 233.271 396.067 233.271 396.773 234.121C400.808 240.302 400.372 246.6 400.371 253.755C400.375 255.797 400.411 257.836 400.449 259.877C400.475 268.481 400.026 274.335 394.254 281.023C393.696 281.469 393.138 281.915 392.562 282.375C392.007 282.836 391.451 283.298 390.879 283.773C385.544 287.256 380.869 287.252 374.687 287.125C373.852 287.116 373.016 287.107 372.154 287.098C370.103 287.074 368.051 287.038 366 287C365.853 287.632 365.706 288.263 365.555 288.914C363.519 297.033 360.433 304.39 357 312C357.603 312.568 358.207 313.137 358.828 313.723C365.732 320.393 370.469 325.845 371.312 335.625C371.116 345.46 365.649 352.315 358.875 358.875C358.166 359.607 357.457 360.339 356.727 361.094C350.886 366.872 344.288 371.034 335.875 371.437C326.974 370.432 322.563 367.143 316.199 361.059C313.979 358.868 313.979 358.868 311 357C308.309 357.97 305.872 359.004 303.312 360.25C297.914 362.829 292.857 364.712 287 366C287.046 367.207 287.093 368.413 287.141 369.656C287.178 371.271 287.215 372.885 287.25 374.5C287.283 375.291 287.317 376.083 287.352 376.898C287.464 383.745 285.754 388.809 281.254 394.023C280.696 394.469 280.138 394.915 279.562 395.375C279.007 395.836 278.451 396.298 277.879 396.773C271.698 400.808 265.399 400.372 258.245 400.371C256.203 400.375 254.164 400.411 252.123 400.449C243.519 400.475 237.665 400.026 230.977 394.254C230.531 393.696 230.085 393.138 229.625 392.562C229.163 392.007 228.702 391.451 228.227 390.879C224.744 385.544 224.748 380.869 224.875 374.687C224.884 373.852 224.893 373.016 224.902 372.154C224.926 370.103 224.962 368.051 225 366C224.368 365.853 223.737 365.706 223.086 365.555C214.967 363.519 207.61 360.433 200 357C199.431 357.603 198.863 358.207 198.277 358.828C191.304 366.046 185.982 370.315 175.812 371.312C166.095 370.516 159.726 365.692 153.125 358.875C152.393 358.166 151.661 357.457 150.906 356.727C145.128 350.886 140.966 344.288 140.562 335.875C141.567 326.974 144.857 322.563 150.941 316.199C153.132 313.979 153.132 313.979 155 311C154.03 308.309 152.995 305.872 151.75 303.312C149.17 297.914 147.288 292.857 146 287C144.793 287.046 143.587 287.093 142.344 287.141C140.729 287.178 139.115 287.215 137.5 287.25C136.708 287.283 135.917 287.317 135.102 287.352C128.255 287.464 123.191 285.754 117.977 281.254C117.531 280.696 117.085 280.138 116.625 279.562C116.163 279.007 115.702 278.451 115.227 277.879C111.192 271.698 111.628 265.399 111.629 258.245C111.625 256.203 111.589 254.164 111.551 252.123C111.525 243.519 111.974 237.665 117.746 230.977C118.583 230.308 118.583 230.308 119.437 229.625C120.271 228.933 120.271 228.933 121.121 228.227C126.456 224.744 131.131 224.748 137.312 224.875C138.566 224.889 138.566 224.889 139.846 224.902C141.897 224.926 143.949 224.962 146 225C146.147 224.368 146.294 223.737 146.445 223.086C148.481 214.967 151.567 207.61 155 200C154.397 199.431 153.793 198.863 153.172 198.277C146.268 191.607 141.531 186.155 140.687 176.375C140.884 166.539 146.351 159.685 153.125 153.125C153.834 152.393 154.543 151.661 155.273 150.906C161.114 145.128 167.712 140.966 176.125 140.562C185.026 141.567 189.437 144.857 195.801 150.941C198.021 153.132 198.021 153.132 201 155C203.691 154.03 206.128 152.995 208.687 151.75C214.086 149.17 219.143 147.288 225 146C224.954 144.793 224.907 143.587 224.859 142.344C224.822 140.729 224.785 139.115 224.75 137.5C224.716 136.708 224.683 135.917 224.648 135.102C224.536 128.255 226.246 123.191 230.746 117.977C231.304 117.531 231.862 117.085 232.437 116.625C232.993 116.163 233.549 115.702 234.121 115.227C240.302 111.192 246.6 111.628 253.755 111.629ZM242.918 129.277C239.739 133.79 240.297 138.682 240.312 144.062C240.296 146.241 240.272 148.419 240.238 150.598C240.239 151.562 240.239 152.526 240.239 153.52C240 156 240 156 238 159C236.083 159.856 236.083 159.856 233.738 160.543C232.873 160.808 232.008 161.074 231.117 161.347C230.192 161.625 229.266 161.902 228.312 162.187C220.642 164.584 213.672 167.333 206.796 171.51C203.026 173.739 200.372 174.628 196 174C193.98 172.785 193.98 172.785 192.187 171.062C191.513 170.433 190.839 169.804 190.145 169.156C188.637 167.64 187.157 166.096 185.699 164.531C184.932 163.717 184.165 162.902 183.375 162.062C182.681 161.29 181.988 160.518 181.273 159.723C179.08 157.827 179.08 157.827 176.219 157.301C171.232 158.384 168.596 161.533 165.125 165.125C164.437 165.79 163.748 166.455 163.039 167.141C160.21 170.003 158.265 172.123 157.09 176.008C158.535 180.758 161.853 183.442 165.437 186.75C166.834 188.076 168.228 189.404 169.621 190.734C170.244 191.314 170.867 191.894 171.509 192.491C173.55 194.556 173.969 195.744 174.32 198.645C173.897 203.078 172.111 205.905 169.875 209.687C165.817 216.862 163.12 223.989 160.941 231.93C159.286 237.809 159.286 237.809 156 240C153.52 240.239 153.52 240.239 150.598 240.238C149.015 240.262 149.015 240.262 147.4 240.287C145.179 240.304 142.958 240.309 140.736 240.303C134.622 240.324 134.622 240.324 129.277 242.918C127.448 247.331 127.418 251.267 127.5 256C127.485 256.889 127.469 257.779 127.453 258.695C127.476 262.58 127.784 265.48 129.281 269.09C133.777 272.249 138.647 271.622 144 271.562C146.167 271.546 148.333 271.546 150.5 271.566C151.459 271.555 152.418 271.545 153.406 271.533C156.774 272.139 157.906 273.345 160 276C160.859 278.583 161.558 281.052 162.187 283.687C164.149 291.195 167.114 297.615 171.053 304.29C173.378 308.327 174.777 311.2 174 316C172.785 318.02 172.785 318.02 171.062 319.812C170.433 320.487 169.804 321.161 169.156 321.855C167.64 323.363 166.096 324.843 164.531 326.301C163.309 327.451 163.309 327.451 162.062 328.625C161.29 329.318 160.518 330.012 159.723 330.727C157.827 332.92 157.827 332.92 157.301 335.781C158.384 340.768 161.533 343.404 165.125 346.875C166.123 347.908 166.123 347.908 167.141 348.961C170.003 351.789 172.123 353.734 176.008 354.91C180.758 353.465 183.442 350.146 186.75 346.562C188.076 345.166 189.404 343.772 190.734 342.379C191.314 341.756 191.894 341.133 192.491 340.49C194.556 338.45 195.744 338.031 198.645 337.68C203.078 338.103 205.905 339.889 209.687 342.125C216.862 346.183 223.989 348.88 231.93 351.059C237.809 352.714 237.809 352.714 240 356C240.239 358.48 240.239 358.48 240.238 361.402C240.262 362.985 240.262 362.985 240.287 364.6C240.304 366.821 240.309 369.042 240.303 371.264C240.324 377.378 240.324 377.378 242.918 382.723C247.331 384.552 251.267 384.582 256 384.5C256.889 384.515 257.779 384.531 258.695 384.547C262.58 384.524 265.48 384.215 269.09 382.719C272.249 378.223 271.622 373.353 271.562 368C271.546 365.833 271.546 363.667 271.566 361.5C271.555 360.541 271.545 359.582 271.533 358.594C272.139 355.226 273.345 354.094 276 352C278.583 351.141 281.052 350.442 283.687 349.812C291.195 347.851 297.615 344.886 304.29 340.947C308.327 338.622 311.2 337.223 316 338C318.02 339.215 318.02 339.215 319.812 340.937C320.487 341.567 321.161 342.196 321.855 342.844C323.363 344.36 324.843 345.904 326.301 347.469C327.068 348.283 327.835 349.098 328.625 349.937C329.318 350.71 330.012 351.482 330.727 352.277C332.92 354.173 332.92 354.173 335.781 354.699C340.768 353.616 343.404 350.467 346.875 346.875C347.908 345.877 347.908 345.877 348.961 344.859C351.789 341.997 353.734 339.877 354.91 335.992C353.465 331.242 350.146 328.558 346.562 325.25C345.166 323.924 343.772 322.596 342.379 321.266C341.756 320.686 341.133 320.106 340.49 319.509C338.45 317.444 338.031 316.256 337.68 313.355C338.103 308.922 339.889 306.094 342.125 302.312C346.183 295.138 348.88 288.011 351.059 280.07C352.714 274.191 352.714 274.191 356 272C358.48 271.76 358.48 271.76 361.402 271.762C362.985 271.738 362.985 271.738 364.6 271.713C366.821 271.696 369.042 271.691 371.264 271.697C377.378 271.676 377.378 271.676 382.723 269.082C384.552 264.669 384.582 260.733 384.5 256C384.515 255.111 384.531 254.221 384.547 253.305C384.524 249.424 384.217 246.523 382.723 242.918C378.21 239.739 373.318 240.297 367.937 240.312C365.759 240.296 363.581 240.272 361.402 240.238C359.956 240.239 359.956 240.239 358.48 240.239C356 240 356 240 353 238C352.144 236.083 352.144 236.083 351.457 233.738C351.059 232.441 351.059 232.441 350.653 231.117C350.375 230.192 350.098 229.266 349.812 228.312C347.416 220.642 344.667 213.672 340.489 206.796C338.261 203.026 337.372 200.372 338 196C339.215 193.98 339.215 193.98 340.937 192.187C341.881 191.176 341.881 191.176 342.844 190.145C344.36 188.637 345.904 187.157 347.469 185.699C348.283 184.932 349.098 184.165 349.937 183.375C350.71 182.681 351.482 181.988 352.277 181.273C354.173 179.08 354.173 179.08 354.699 176.219C353.616 171.232 350.467 168.596 346.875 165.125C345.877 164.092 345.877 164.092 344.859 163.039C341.997 160.21 339.877 158.265 335.992 157.09C331.242 158.535 328.558 161.853 325.25 165.437C323.924 166.834 322.596 168.228 321.266 169.621C320.686 170.244 320.106 170.867 319.509 171.509C317.444 173.55 316.256 173.969 313.355 174.32C308.922 173.897 306.094 172.111 302.312 169.875C295.138 165.817 288.011 163.12 280.07 160.941C274.191 159.286 274.191 159.286 272 156C271.76 153.52 271.76 153.52 271.762 150.598C271.746 149.543 271.729 148.487 271.713 147.4C271.696 145.179 271.691 142.958 271.697 140.736C271.676 134.622 271.676 134.622 269.082 129.277C264.669 127.448 260.733 127.418 256 127.5C255.111 127.485 254.221 127.469 253.305 127.453C249.424 127.476 246.523 127.783 242.918 129.277Z" fill="#2D4356"/>
<path d="M284.457 221.734C291.545 228.049 296.186 234.937 299 244C299.191 244.612 299.382 245.225 299.578 245.855C301.802 257.162 299.991 269.002 294.305 278.973C287.267 289.329 278.959 295.478 267 299C266.01 299.33 265.02 299.66 264 300C250.035 300.987 238.891 299.109 227.543 290.266C220.455 283.951 215.814 277.063 213 268C212.809 267.399 212.618 266.799 212.422 266.18C209.996 253.647 212.256 241.33 219.25 230.687C226.095 221.62 235.283 214.644 246.621 212.285C261.118 210.547 272.854 212.693 284.457 221.734Z" fill="#DFEAF3"/>
<path d="M290 206C293.616 208.759 296.831 211.743 300 215C300.549 215.517 301.098 216.034 301.664 216.566C312.653 227.82 316.39 243.521 316.299 258.685C315.884 274.788 308.427 288.902 297 300C296.19 300.841 296.19 300.841 295.363 301.699C284.528 312.098 268.644 316.53 253.999 316.35C237.069 315.752 223.813 308.943 212 297C211.45 296.483 210.899 295.966 210.332 295.434C201.991 286.869 196.677 273.768 196 262C195.92 260.733 195.84 259.466 195.758 258.16C195.097 242.447 200.041 228.534 210.437 216.688C211.943 215.11 213.462 213.546 215 212C215.518 211.447 216.036 210.894 216.57 210.324C220.47 206.537 225.135 204.196 229.937 201.75C230.606 201.408 231.274 201.067 231.963 200.714C250.918 191.435 272.466 195.365 290 206ZM222.187 226.813C213.264 237.673 210.701 250.229 212 264C214.283 276.284 221.551 285.922 231.406 293.344C235.383 295.883 239.504 297.604 244 299C244.601 299.191 245.201 299.382 245.82 299.578C257.249 301.79 268.87 300.165 278.902 294.305C289.234 287.304 295.606 279.004 299 267C299.191 266.379 299.382 265.757 299.578 265.117C301.795 253.99 299.989 242.838 294.305 233.094C287.248 222.695 279.012 216.538 267 213C266.01 212.67 265.02 212.34 264 212C247.586 210.745 233.734 214.521 222.187 226.813Z" fill="#2E4558"/>
<path d="M484 220C488.02 221.84 491.818 223.961 495.602 226.244C497.382 227.316 499.175 228.362 500.973 229.404C509.705 234.557 509.705 234.557 512 238C512.232 240.698 512.352 243.291 512.371 245.992C512.38 246.775 512.389 247.558 512.398 248.365C512.413 250.021 512.422 251.676 512.426 253.332C512.437 255.859 512.487 258.384 512.537 260.91C512.547 262.521 512.554 264.131 512.559 265.742C512.578 266.494 512.598 267.247 512.618 268.022C512.585 271.876 512.199 273.747 509.792 276.808C505.344 280.3 500.599 283.026 495.688 285.812C494.68 286.41 493.673 287.007 492.635 287.623C483.017 293.106 483.017 293.106 478.209 292.673C473.24 291.159 468.823 288.425 464.398 285.756C462.618 284.683 460.825 283.638 459.027 282.596C450.295 277.443 450.295 277.443 448 274C448 270.7 448 267.4 448 264C437.11 264 426.22 264 415 264C415 258.72 415 253.44 415 248C425.89 248 436.78 248 448 248C448 244.7 448 241.4 448 238C451.684 232.454 458.617 229.419 464.312 226.187C465.32 225.59 466.327 224.992 467.365 224.377C478.163 218.222 478.163 218.222 484 220Z" fill="#2D4356"/>
<path d="M36 220C40.0197 221.84 43.8179 223.961 47.602 226.244C49.3816 227.316 51.1751 228.362 52.9726 229.404C61.7045 234.557 61.7045 234.557 64 238C64 241.3 64 244.6 64 248C74.89 248 85.78 248 97 248C97 253.28 97 258.56 97 264C86.11 264 75.22 264 64 264C64 267.3 64 270.6 64 274C60.3163 279.545 53.3835 282.581 47.6875 285.812C46.6801 286.41 45.6727 287.007 44.6348 287.623C35.0165 293.106 35.0165 293.106 30.2092 292.673C25.2402 291.159 20.823 288.425 16.3979 285.756C14.6183 284.683 12.8249 283.638 11.0273 282.596C2.29545 277.443 2.29545 277.443 -1.52588e-05 274C-0.231874 271.301 -0.351957 268.709 -0.371109 266.008C-0.380137 265.225 -0.389166 264.442 -0.398468 263.635C-0.412969 261.979 -0.421857 260.323 -0.425552 258.667C-0.437442 256.141 -0.486617 253.616 -0.537125 251.09C-0.54659 249.479 -0.553825 247.868 -0.558609 246.258C-0.578141 245.505 -0.597674 244.753 -0.617798 243.978C-0.584837 240.124 -0.198851 238.253 2.2075 235.192C6.65597 231.7 11.4011 228.974 16.3125 226.187C17.3199 225.59 18.3273 224.992 19.3652 224.377C30.1633 218.222 30.1633 218.222 36 220Z" fill="#2D4356"/>
<path d="M422.75 68.8124C423.764 69.0605 424.779 69.3087 425.824 69.5643C435.863 72.1564 435.863 72.1564 439 75.9999C440.39 79.3617 441.302 82.7883 442.188 86.3124C442.558 87.6997 442.558 87.6997 442.936 89.1151C443.416 90.9181 443.889 92.723 444.354 94.5299C444.919 96.6909 445.522 98.8338 446.152 100.976C447.409 105.459 447.867 108.453 445.539 112.605C442.266 117.315 438.06 121.229 434 125.25C433.193 126.065 432.386 126.879 431.555 127.719C430.774 128.497 429.992 129.276 429.188 130.078C428.48 130.783 427.772 131.489 427.043 132.216C423.593 135.228 421.831 136.027 417.188 135.875C411.436 135.108 405.907 133.383 400.355 131.742C397.054 131.012 396.032 130.837 393 132C390.906 133.681 390.906 133.681 388.891 135.816C388.137 136.58 387.382 137.344 386.605 138.131C385.44 139.334 385.44 139.334 384.25 140.562C383.457 141.369 382.664 142.175 381.848 143.006C379.892 144.997 377.943 146.995 376 149C372.367 147.304 370.055 145.262 367.25 142.375C366.451 141.558 365.652 140.74 364.828 139.898C364.225 139.272 363.622 138.645 363 138C364.412 134.712 366.066 132.822 368.766 130.496C369.49 129.837 370.215 129.177 370.961 128.498C372.482 127.129 374.024 125.782 375.586 124.459C377.813 122.389 379.504 120.652 381 118C381.137 114.06 380.221 110.723 379 107C378.561 105.399 378.561 105.399 378.113 103.766C377.849 102.935 377.585 102.105 377.312 101.25C376.078 96.7392 375.454 93.5528 377 88.9999C379.004 86.004 381.467 83.5535 384 80.9999C385.146 79.8165 386.292 78.6329 387.438 77.4491C388.686 76.1729 389.936 74.8981 391.188 73.6249C391.794 73.0054 392.4 72.3859 393.024 71.7477C393.608 71.1632 394.192 70.5787 394.793 69.9764C395.314 69.4513 395.835 68.9262 396.372 68.3851C403.847 62.0252 414.229 66.5968 422.75 68.8124Z" fill="#2D4356"/>
<path d="M374 363C377.288 364.412 379.178 366.066 381.504 368.766C382.163 369.49 382.823 370.215 383.502 370.961C384.871 372.482 386.218 374.024 387.541 375.586C389.611 377.813 391.348 379.504 394 381C397.94 381.137 401.277 380.221 405 379C406.601 378.561 406.601 378.561 408.234 378.113C409.065 377.849 409.895 377.585 410.75 377.312C415.261 376.078 418.447 375.454 423 377C425.996 379.004 428.446 381.467 431 384C432.183 385.146 433.367 386.292 434.551 387.438C435.827 388.686 437.102 389.936 438.375 391.188C438.994 391.794 439.614 392.4 440.252 393.024C440.837 393.608 441.421 394.192 442.023 394.793C442.549 395.314 443.074 395.835 443.615 396.372C445.637 398.749 446.953 400.777 447.075 403.946C446.227 410.335 444.809 416.515 443.188 422.75C442.939 423.764 442.691 424.779 442.436 425.824C439.845 435.856 439.845 435.856 436 439C432.66 440.392 429.254 441.303 425.75 442.188C424.833 442.434 423.917 442.681 422.973 442.936C420.32 443.645 417.662 444.325 415 445C414.23 445.204 413.461 445.408 412.668 445.617C407.953 446.85 404.74 447.439 400 446C396.996 444.011 394.552 441.531 392 439C390.817 437.854 389.633 436.708 388.449 435.562C387.173 434.314 385.898 433.064 384.625 431.812C384.006 431.206 383.386 430.6 382.748 429.976C382.163 429.392 381.579 428.808 380.977 428.207C380.451 427.686 379.926 427.165 379.385 426.628C376.623 423.381 375.983 421.513 376.125 417.188C376.892 411.436 378.617 405.907 380.258 400.355C380.988 397.054 381.162 396.032 380 393C378.319 390.906 378.319 390.906 376.184 388.891C375.42 388.137 374.656 387.382 373.869 386.605C373.067 385.828 372.264 385.051 371.438 384.25C370.631 383.457 369.825 382.664 368.994 381.848C367.003 379.892 365.005 377.943 363 376C364.696 372.367 366.738 370.055 369.625 367.25C370.442 366.451 371.26 365.652 372.102 364.828C373.041 363.923 373.041 363.923 374 363Z" fill="#2D4356"/>
<path d="M136 363C139.633 364.696 141.946 366.738 144.75 369.625C145.549 370.442 146.348 371.26 147.172 372.102C147.775 372.728 148.378 373.355 149 374C147.588 377.288 145.934 379.178 143.234 381.504C142.51 382.163 141.786 382.823 141.039 383.502C139.518 384.871 137.976 386.218 136.414 387.541C134.187 389.611 132.496 391.348 131 394C130.863 397.94 131.779 401.277 133 405C133.439 406.601 133.439 406.601 133.887 408.234C134.151 409.065 134.415 409.895 134.688 410.75C135.922 415.261 136.546 418.447 135 423C132.996 425.996 130.533 428.446 128 431C126.854 432.183 125.708 433.367 124.563 434.551C123.314 435.827 122.064 437.102 120.813 438.375C119.903 439.304 119.903 439.304 118.976 440.252C118.392 440.837 117.808 441.421 117.207 442.023C116.686 442.549 116.165 443.074 115.628 443.615C113.251 445.637 111.223 446.953 108.054 447.075C101.665 446.227 95.485 444.809 89.2501 443.188C88.2356 442.939 87.2211 442.691 86.1758 442.436C76.1439 439.845 76.1439 439.845 73.0001 436C71.6082 432.66 70.6971 429.254 69.8126 425.75C69.5657 424.833 69.3188 423.917 69.0645 422.973C68.355 420.32 67.6749 417.662 67.0001 415C66.7963 414.23 66.5925 413.461 66.3826 412.668C65.1501 407.953 64.561 404.74 66.0001 400C67.9889 396.996 70.4686 394.552 73.0001 392C74.1461 390.817 75.2919 389.633 76.4376 388.449C77.686 387.173 78.936 385.898 80.1876 384.625C80.7937 384.006 81.3998 383.386 82.0242 382.748C82.6079 382.163 83.1916 381.579 83.793 380.977C84.314 380.451 84.8351 379.926 85.3719 379.385C88.6191 376.623 90.4871 375.983 94.8126 376.125C100.564 376.892 106.093 378.617 111.645 380.258C114.946 380.988 115.968 381.162 119 380C121.094 378.319 121.094 378.319 123.109 376.184C123.864 375.42 124.618 374.656 125.395 373.869C126.172 373.067 126.949 372.264 127.75 371.438C128.939 370.228 128.939 370.228 130.152 368.994C132.109 367.003 134.057 365.005 136 363Z" fill="#2D4356"/>
<path d="M112 65.9999C115.004 67.9888 117.448 70.4685 120 72.9999C121.183 74.146 122.367 75.2918 123.551 76.4374C124.827 77.6859 126.102 78.9359 127.375 80.1874C127.994 80.7935 128.614 81.3996 129.252 82.0241C129.837 82.6078 130.421 83.1915 131.023 83.7929C131.549 84.3139 132.074 84.8349 132.615 85.3718C135.377 88.619 136.017 90.487 135.875 94.8124C135.108 100.564 133.383 106.093 131.742 111.644C131.012 114.946 130.838 115.968 132 119C133.681 121.093 133.681 121.093 135.816 123.109C136.58 123.863 137.344 124.618 138.131 125.394C139.335 126.56 139.335 126.56 140.562 127.75C141.369 128.543 142.175 129.335 143.006 130.152C144.997 132.108 146.995 134.057 149 136C147.304 139.633 145.262 141.945 142.375 144.75C141.558 145.549 140.74 146.348 139.898 147.172C139.272 147.775 138.645 148.378 138 149C134.712 147.588 132.822 145.934 130.496 143.234C129.837 142.51 129.177 141.785 128.498 141.039C127.129 139.518 125.782 137.976 124.459 136.414C122.389 134.187 120.652 132.496 118 131C114.06 130.863 110.723 131.779 107 133C105.399 133.439 105.399 133.439 103.766 133.887C102.935 134.151 102.105 134.415 101.25 134.687C96.7394 135.922 93.5529 136.546 89 135C86.0041 132.996 83.5536 130.533 81 128C79.8166 126.854 78.633 125.708 77.4492 124.562C76.173 123.314 74.8982 122.064 73.625 120.812C73.0055 120.206 72.386 119.6 71.7478 118.976C70.871 118.1 70.871 118.1 69.9766 117.207C69.4514 116.686 68.9263 116.165 68.3853 115.628C66.3631 113.251 65.0474 111.223 64.9246 108.054C65.7726 101.664 67.1914 95.4849 68.8125 89.2499C69.1847 87.7282 69.1847 87.7282 69.5645 86.1757C72.1548 76.1437 72.1548 76.1437 76 72.9999C79.3405 71.6081 82.7456 70.697 86.25 69.8124C87.6248 69.4421 87.6248 69.4421 89.0273 69.0644C91.6799 68.3549 94.3385 67.6747 97 66.9999C97.7696 66.7962 98.5391 66.5924 99.332 66.3825C104.047 65.15 107.26 64.5609 112 65.9999Z" fill="#2D4356"/>
<path d="M248 415C253.28 415 258.56 415 264 415C263.829 416.882 263.657 418.764 263.48 420.703C262.289 433.833 262.289 433.833 267.076 445.456C272.176 449.326 277.854 451.853 283.861 454.002C286 455 286 455 288 458C288.232 460.698 288.352 463.291 288.371 465.992C288.38 466.775 288.389 467.558 288.398 468.365C288.413 470.021 288.422 471.677 288.426 473.333C288.437 475.859 288.487 478.384 288.537 480.91C288.547 482.521 288.554 484.132 288.559 485.742C288.578 486.494 288.598 487.247 288.618 488.022C288.585 491.876 288.199 493.747 285.792 496.808C281.344 500.3 276.599 503.026 271.687 505.812C270.68 506.41 269.673 507.007 268.635 507.623C259.017 513.106 259.017 513.106 254.209 512.673C249.24 511.159 244.823 508.426 240.398 505.756C238.618 504.683 236.825 503.638 235.027 502.596C226.295 497.443 226.295 497.443 224 494C223.768 491.302 223.648 488.709 223.629 486.008C223.62 485.225 223.611 484.442 223.602 483.635C223.587 481.979 223.578 480.323 223.574 478.667C223.563 476.141 223.513 473.616 223.463 471.09C223.453 469.479 223.446 467.868 223.441 466.258C223.422 465.506 223.402 464.753 223.382 463.978C223.416 460.063 223.833 458.215 226.26 455.09C228.738 453.2 230.448 452.184 233.391 451.309C238.659 449.37 243.467 447.539 247 443C249.617 433.984 248.663 424.25 248 415Z" fill="#2D4356"/>
<path d="M260 -9.71556e-05C264.02 1.83962 267.818 3.96101 271.602 6.2438C273.382 7.31641 275.175 8.36196 276.973 9.4042C285.705 14.5567 285.705 14.5567 288 17.9999C288.232 20.6983 288.352 23.2912 288.371 25.9921C288.38 26.775 288.389 27.558 288.398 28.3647C288.413 30.0206 288.422 31.6765 288.426 33.3324C288.437 35.8593 288.487 38.3837 288.537 40.9101C288.547 42.5207 288.554 44.1314 288.559 45.7421C288.578 46.4943 288.598 47.2466 288.618 48.0216C288.584 51.9373 288.167 53.7852 285.739 56.9103C283.262 58.8 281.552 59.8163 278.609 60.6913C273.341 62.6295 268.533 64.4608 265 68.9999C262.383 78.0159 263.337 87.75 264 96.9999C258.72 96.9999 253.44 96.9999 248 96.9999C248.171 95.1179 248.343 93.2358 248.52 91.2968C249.711 78.167 249.711 78.167 244.924 66.5443C239.824 62.6736 234.146 60.1473 228.139 57.9977C226 56.9999 226 56.9999 224 53.9999C223.768 51.3015 223.648 48.7086 223.629 46.0077C223.62 45.2248 223.611 44.4418 223.602 43.6351C223.587 41.9793 223.578 40.3233 223.574 38.6674C223.563 36.1405 223.513 33.6161 223.463 31.0897C223.453 29.4791 223.446 27.8684 223.441 26.2577C223.422 25.5055 223.402 24.7532 223.382 23.9782C223.415 20.124 223.801 18.2528 226.208 15.192C230.656 11.6999 235.401 8.97393 240.312 6.1874C241.32 5.58992 242.327 4.99244 243.365 4.37686C254.163 -1.77839 254.163 -1.77839 260 -9.71556e-05Z" fill="#2D4356"/>
<path d="M257.594 457.656C258.388 458.1 259.182 458.543 260 459C261.027 459.338 262.055 459.675 263.113 460.023C266.901 461.623 269.203 462.954 272 466C274.325 472.316 274.428 479.709 272 486C268.225 490.788 262.752 493.367 257 495C254.406 494.344 254.406 494.344 252 493C250.973 492.662 249.945 492.324 248.887 491.976C245.099 490.376 242.797 489.045 240 486C237.675 479.684 237.572 472.291 240 466C243.77 461.218 251.407 456.091 257.594 457.656Z" fill="#E0EAF3"/>
<path d="M414.59 393.574C418.305 394.231 420.249 396.76 422.688 399.438C425.977 403.182 425.977 403.182 430 406C429.409 408.774 428.803 411.544 428.188 414.312C428.022 415.098 427.856 415.884 427.686 416.693C427.429 417.829 427.429 417.829 427.168 418.988C427.016 419.685 426.864 420.381 426.708 421.099C425.339 424.776 423.13 425.937 419.664 427.625C415.505 429.161 411.47 430.484 407 430C403.973 428.581 401.786 426.669 399.438 424.312C398.872 423.754 398.306 423.195 397.723 422.619C395.478 420.058 394.069 418.182 393.867 414.719C394.111 412.433 394.514 410.246 395 408C395.086 407.034 395.173 406.069 395.262 405.074C395.774 402.2 396.3 400.398 398 398C403.336 395.415 408.79 394.528 414.59 393.574Z" fill="#E0EAF3"/>
<path d="M481.594 237.656C482.388 238.1 483.182 238.543 484 239C485.027 239.338 486.055 239.675 487.113 240.023C490.901 241.623 493.203 242.954 496 246C498.325 252.316 498.428 259.709 496 266C492.226 270.788 486.752 273.367 481 275C478.406 274.344 478.406 274.344 476 273C474.973 272.662 473.945 272.324 472.887 271.976C469.099 270.376 466.797 269.045 464 266C461.675 259.684 461.572 252.291 464 246C467.77 241.218 475.407 236.091 481.594 237.656Z" fill="#E0EAF3"/>
<path d="M33.5937 237.656C34.3878 238.1 35.1818 238.543 35.9999 239C37.0273 239.338 38.0547 239.675 39.1132 240.023C42.9007 241.623 45.2026 242.954 47.9999 246C50.3251 252.316 50.4277 259.709 47.9999 266C44.2254 270.788 38.7523 273.367 32.9999 275C30.4062 274.344 30.4062 274.344 27.9999 273C26.9726 272.662 25.9452 272.324 24.8867 271.976C21.0992 270.376 18.7973 269.045 15.9999 266C13.6748 259.684 13.5722 252.291 15.9999 246C19.7701 241.218 27.4072 236.091 33.5937 237.656Z" fill="#E0EAF3"/>
<path d="M257.594 17.6562C258.388 18.0996 259.182 18.543 260 18.9999C261.027 19.3376 262.055 19.6754 263.113 20.0234C266.901 21.6234 269.203 22.9545 272 25.9999C274.325 32.3156 274.428 39.7088 272 45.9999C268.225 50.7876 262.752 53.3666 257 54.9999C254.406 54.3437 254.406 54.3437 252 52.9999C250.973 52.6622 249.945 52.3244 248.887 51.9765C245.099 50.3764 242.797 49.0453 240 45.9999C237.675 39.6842 237.572 32.291 240 25.9999C243.77 21.2177 251.407 16.0909 257.594 17.6562Z" fill="#E0EAF3"/>
<path d="M99.1875 394C100.795 394.315 102.4 394.649 104 395C104.879 395.086 105.758 395.173 106.664 395.262C109.676 395.746 111.5 396.227 114 398C116.188 402.517 117.248 407.052 118 412C118.141 412.84 118.281 413.681 118.426 414.547C117.471 420.05 111.74 424.487 107.56 427.937C105.414 429.399 103.951 429.701 101.375 429.438C99.9077 428.987 98.4493 428.506 97 428C96.1415 427.939 95.283 427.879 94.3984 427.816C91.1748 427.431 89.5776 427.016 87 425C84.1559 419.545 82 412.141 82 406C83.5742 404.449 83.5742 404.449 85.6875 402.688C88.2693 400.535 90.3016 398.629 92.4375 396C95.2876 393.776 95.7619 393.713 99.1875 394Z" fill="#E0EAF3"/>
<path d="M410.625 82.5626C412.092 83.0134 413.551 83.4941 415 84.0001C416.288 84.091 416.288 84.091 417.602 84.1837C420.812 84.5673 422.414 85.0207 425 87.0001C428.047 92.0518 429.767 98.1119 430 104C428.851 107.503 426.901 108.863 424 111C422.892 112.33 421.788 113.663 420.688 115C418.717 116.927 417.646 117.901 414.906 118.32C412.508 118.109 410.332 117.594 408 117C406.685 116.867 406.685 116.867 405.344 116.731C402.323 116.255 400.505 115.777 398 114C395.812 109.483 394.752 104.948 394 100C393.859 99.1596 393.719 98.3191 393.574 97.4532C394.529 91.9497 400.26 87.5127 404.44 84.0631C406.586 82.6008 408.049 82.2989 410.625 82.5626Z" fill="#E0EAF2"/>
<path d="M106 83C108.47 84.7568 110.354 86.3033 112.437 88.4375C113.243 89.259 113.243 89.259 114.065 90.0971C116.261 92.4999 117.806 94.2757 118.656 97.4492C118.418 99.821 117.794 101.756 117 104C116.857 105.305 116.857 105.305 116.711 106.637C116.258 109.677 115.786 111.482 114 114C109.483 116.188 104.948 117.248 100 118C99.1737 118.142 98.3474 118.284 97.4961 118.43C91.5005 117.398 86.5436 111.713 83.019 107.02C80.8364 102.693 82.275 98.6876 83.6521 94.2949C84.8799 90.9676 86.0472 88.055 89 86C91.4883 85.0508 91.4883 85.0508 94.3125 84.3125C95.2367 84.0611 96.161 83.8097 97.1133 83.5508C100.333 82.9364 102.735 82.5479 106 83Z" fill="#E0EAF3"/>
<path d="M271 157C271.665 157.451 272.33 157.902 273.016 158.367C276.48 160.263 279.955 161.163 283.75 162.125C291.207 164.131 297.647 167.133 304.29 171.053C308.327 173.379 311.2 174.777 316 174C318.091 172.844 318.091 172.844 319.812 171.062C320.824 170.119 320.824 170.119 321.855 169.156C323.363 167.64 324.843 166.096 326.301 164.531C327.451 163.309 327.451 163.309 328.625 162.062C329.318 161.29 330.012 160.518 330.727 159.723C333 158 333 158 335.781 157.301C340.768 158.384 343.404 161.533 346.875 165.125C347.563 165.79 348.252 166.455 348.961 167.141C353.889 172.127 353.889 172.127 354.445 176.492C354.298 177.32 354.151 178.147 354 179C349.015 178.544 346.331 174.382 343.242 170.861C340.996 168.455 339.321 167.09 336.133 166.195C331.225 167.456 328.616 170.79 325.25 174.438C323.924 175.834 322.596 177.228 321.266 178.621C320.686 179.244 320.106 179.867 319.509 180.51C317.418 182.575 316.252 182.973 313.309 183.293C309.248 182.933 306.485 181.355 303.062 179.312C296.693 175.701 290.432 173.23 283.437 171.105C273.635 167.953 273.635 167.953 271 164C270.921 161.668 270.912 159.332 271 157Z" fill="#A1E2E9"/>
<path d="M240 157C240.33 157 240.66 157 241 157C241.398 161.063 241.467 163.291 239.187 166.75C235.496 169.356 232.374 170.155 228.027 171.199C219.616 173.424 211.974 177.369 204.57 181.863C201.446 183.245 199.384 183.408 196 183C193.98 181.785 193.98 181.785 192.187 180.062C191.513 179.433 190.839 178.804 190.144 178.156C188.637 176.64 187.157 175.096 185.699 173.531C184.932 172.717 184.165 171.902 183.375 171.062C182.681 170.29 181.988 169.518 181.273 168.723C179.064 166.763 179.064 166.763 175.98 166.547C172.576 167.064 171.39 167.826 168.937 170.188C167.926 171.139 167.926 171.139 166.894 172.109C165.293 173.708 163.704 175.317 162.125 176.938C160 179 160 179 158 179C157.441 175.852 157.465 173.776 159.31 171.099C161.173 169.018 163.116 167.066 165.125 165.125C165.79 164.437 166.455 163.748 167.141 163.039C170.003 160.21 172.123 158.266 176.008 157.09C180.758 158.535 183.442 161.853 186.75 165.438C188.076 166.834 189.404 168.228 190.734 169.621C191.314 170.244 191.894 170.867 192.491 171.51C194.556 173.55 195.744 173.969 198.644 174.32C203.078 173.897 205.905 172.111 209.687 169.875C216.866 165.822 224.011 163.107 231.93 160.853C236.375 159.683 236.375 159.683 240 157Z" fill="#A2E2E9"/>
<path d="M316 329C319.903 331.635 323.102 335.037 326.301 338.469C327.068 339.283 327.835 340.098 328.625 340.937C329.319 341.71 330.012 342.482 330.727 343.277C332.935 345.237 332.935 345.237 336.02 345.449C339.403 344.939 340.608 344.203 343.063 341.875C343.734 341.242 344.406 340.609 345.098 339.957C347.57 337.413 349.817 334.796 352 332C352.99 332.495 352.99 332.495 354 333C354.559 336.148 354.535 338.224 352.69 340.901C350.827 342.982 348.884 344.934 346.875 346.875C346.21 347.563 345.545 348.252 344.859 348.961C341.997 351.789 339.877 353.734 335.992 354.91C331.242 353.465 328.558 350.146 325.25 346.562C323.924 345.166 322.596 343.772 321.266 342.379C320.686 341.756 320.106 341.132 319.509 340.49C317.444 338.45 316.256 338.031 313.356 337.68C308.922 338.103 306.095 339.889 302.313 342.125C295.163 346.165 288.063 348.867 280.158 351.059C279.397 351.274 278.636 351.489 277.852 351.711C277.18 351.889 276.507 352.068 275.815 352.251C273.682 353.131 272.519 354.288 271 356C270.512 348.683 270.512 348.683 272.492 345.91C275.886 343.325 279.316 342.375 283.375 341.187C292.741 338.27 307.006 327.473 316 329Z" fill="#6EB5BD"/>
<path d="M202 329C204.648 330.32 204.648 330.32 207.375 332.125C216.115 337.502 225.611 340.653 235.375 343.687C239 345 239 345 241 348C241.258 350.695 241.089 353.285 241 356C240.392 355.305 240.392 355.305 239.772 354.596C237.747 352.772 236.243 352.224 233.641 351.457C232.779 351.192 231.917 350.926 231.03 350.653C229.654 350.237 229.654 350.237 228.25 349.812C220.606 347.413 213.651 344.653 206.796 340.489C203.026 338.261 200.372 337.372 196 338C193.909 339.156 193.909 339.156 192.188 340.937C191.176 341.881 191.176 341.881 190.145 342.844C188.637 344.36 187.157 345.904 185.699 347.469C184.549 348.691 184.549 348.691 183.375 349.937C182.681 350.71 181.988 351.482 181.273 352.277C179 354 179 354 176.219 354.699C171.232 353.616 168.596 350.467 165.125 346.875C164.437 346.21 163.748 345.545 163.039 344.859C158.111 339.873 158.111 339.873 157.555 335.508C157.702 334.68 157.849 333.853 158 333C158.66 332.67 159.32 332.34 160 332C160.436 332.519 160.871 333.039 161.32 333.574C167.359 341.245 167.359 341.245 175.699 345.59C180.829 344.673 183.308 341.292 186.75 337.562C188.076 336.166 189.404 334.772 190.734 333.379C191.314 332.756 191.894 332.133 192.491 331.49C195.456 328.562 197.955 328.675 202 329Z" fill="#6EB5BC"/>
<path d="M338 206C341 207 341 207 342.649 209.816C343.238 211.059 343.812 212.308 344.375 213.562C344.68 214.223 344.984 214.883 345.298 215.563C347.814 221.192 349.703 226.947 351.314 232.895C352.51 237.195 352.51 237.195 356 240C358.55 240.286 358.55 240.286 361.402 240.238C362.458 240.254 363.513 240.271 364.6 240.287C366.821 240.304 369.042 240.309 371.264 240.303C379.353 240.456 379.353 240.456 382.738 243.305C384.326 246.697 384.29 249.299 384 253C383.01 252.34 382.02 251.68 381 251C378.582 250.698 378.582 250.698 375.887 250.727C374.886 250.706 373.885 250.685 372.854 250.664C370.755 250.638 368.656 250.62 366.557 250.609C356.211 250.37 356.211 250.37 352 246C350.492 242.828 349.562 239.565 348.625 236.188C346.299 228.452 343.585 221.539 339.401 214.62C336.946 210.458 336.946 210.458 337.281 207.598C337.519 207.07 337.756 206.543 338 206Z" fill="#9DDEE5"/>
<path d="M173 206C173.66 206.33 174.32 206.66 175 207C174.419 211.577 172.445 215.066 170.187 219C166.42 225.781 164.091 232.526 162 240C160.899 243.422 159.898 246.211 157.129 248.645C152.324 250.726 147.559 250.495 142.375 250.562C140.299 250.597 138.224 250.64 136.148 250.691C135.232 250.704 134.316 250.716 133.373 250.729C130.734 250.847 130.734 250.847 128 253C127.71 249.299 127.674 246.697 129.262 243.305C133.671 239.594 138.481 240.296 144.062 240.312C146.241 240.296 148.419 240.272 150.598 240.238C151.562 240.239 152.526 240.239 153.52 240.24C156.253 240.173 156.253 240.173 159 238C159.973 235.966 159.973 235.966 160.648 233.562C160.929 232.671 161.21 231.78 161.499 230.862C161.788 229.918 162.077 228.973 162.375 228C167.346 212.42 167.346 212.42 171 207C171.66 206.67 172.32 206.34 173 206Z" fill="#9DDEE5"/>
<path d="M128 258C128.82 258.975 128.82 258.975 129.656 259.971C132.515 262.446 133.775 262.486 137.5 262.469C139.078 262.49 139.078 262.49 140.688 262.512C141.781 262.508 142.874 262.504 144 262.5C146.167 262.492 148.334 262.502 150.5 262.531C151.459 262.527 152.418 262.522 153.406 262.518C156.786 263.146 157.896 264.325 160 267C161.002 269.1 161.002 269.1 161.711 271.344C161.983 272.173 162.256 273.002 162.536 273.856C162.813 274.728 163.09 275.601 163.375 276.5C166.378 285.534 169.687 294.031 175 302C175.125 305.188 175.125 305.188 175 308C172 307 172 307 170.133 303.746C169.45 302.316 168.782 300.88 168.125 299.438C167.774 298.683 167.422 297.929 167.06 297.152C164.384 291.247 162.314 285.263 160.635 279.004C159.467 274.76 159.467 274.76 156 272C153.45 271.714 153.45 271.714 150.598 271.762C149.543 271.746 148.488 271.729 147.4 271.713C145.179 271.696 142.958 271.691 140.736 271.697C132.656 271.544 132.656 271.544 129.262 268.727C127.431 264.771 127.708 262.309 128 258Z" fill="#6DB3BA"/>
<path d="M383 258C383.33 258 383.66 258 384 258C384.473 264.978 384.473 264.978 382.734 268.734C378.33 272.383 373.539 271.625 368 271.562C365.833 271.546 363.667 271.546 361.5 271.566C360.541 271.556 359.582 271.545 358.594 271.533C355.224 272.14 354.095 273.342 352 276C351.118 278.625 350.398 281.133 349.75 283.812C347.415 292.642 343.602 300.154 339 308C338.34 308 337.68 308 337 308C336.656 303.18 337.367 300.844 340.063 296.875C343.967 290.571 346.295 284.058 348.602 277.031C350.096 272.491 351.596 268.161 354 264C356.569 262.715 358.466 262.857 361.34 262.824C362.403 262.8 363.466 262.777 364.561 262.752C366.808 262.709 369.055 262.678 371.303 262.658C372.899 262.617 372.899 262.617 374.527 262.574C375.504 262.56 376.481 262.545 377.488 262.53C380.159 262.229 380.159 262.229 381.78 259.964C382.182 259.316 382.585 258.668 383 258Z" fill="#6DB3BA"/>
<path d="M116 94C116.66 94.33 117.32 94.66 118 95C117.756 98.0318 117.417 100.991 117 104C116.92 104.886 116.84 105.771 116.758 106.684C116.251 109.676 115.764 111.512 114 114C109.483 116.188 104.948 117.248 100 118C99.1711 118.151 98.3423 118.302 97.4883 118.457C93.3705 117.701 90.9575 114.954 88.0625 112.062C87.4693 111.475 86.8761 110.888 86.2649 110.282C82.1199 105.863 82.1199 105.863 81.6016 102.133C82.1499 99.8443 82.8039 98.0213 84 96C84.66 96.33 85.32 96.66 86 97C86.2269 97.7013 86.4537 98.4025 86.6875 99.125C88.6071 103.33 91.083 106.485 95 109C100.245 109.683 105.107 107.707 110 106C111.32 106 112.64 106 114 106C114.144 104.763 114.289 103.525 114.438 102.25C114.787 99.435 115.204 96.7299 116 94Z" fill="#C0C8CF"/>
<path d="M427 406C427.99 406 428.98 406 430 406C429.409 408.774 428.803 411.544 428.188 414.312C428.022 415.098 427.856 415.884 427.686 416.693C427.429 417.829 427.429 417.829 427.168 418.988C427.016 419.685 426.864 420.381 426.708 421.099C425.339 424.776 423.13 425.937 419.664 427.625C415.505 429.161 411.47 430.484 407 430C403.973 428.581 401.786 426.669 399.438 424.312C398.872 423.754 398.306 423.195 397.723 422.619C395.391 419.959 394.05 418.133 393.891 414.533C394.132 412.304 394.478 410.179 395 408C395.516 408.681 396.031 409.361 396.562 410.062C397.367 411.032 398.171 412.001 399 413C399.509 413.636 400.018 414.271 400.543 414.926C402.263 416.89 403.854 418.509 406 420C409.204 420.053 411.006 419.795 414 419C415.998 418.635 417.998 418.281 420 417.938C422.475 417.473 422.475 417.473 425 417C425.66 413.37 426.32 409.74 427 406Z" fill="#BFC7CE"/>
<path d="M82 406C82.66 406 83.32 406 84 406C84.5037 407.457 85.0028 408.916 85.5 410.375C85.9177 411.593 85.9177 411.593 86.3438 412.836C87 415 87 415 87 417C89.2277 417.506 91.4572 418.005 93.6875 418.5C94.9289 418.778 96.1702 419.057 97.4492 419.344C101.723 420.195 101.723 420.195 106 420C108.483 418.16 108.483 418.16 110.688 415.688C111.454 414.887 112.221 414.086 113.012 413.262C115.118 410.966 115.118 410.966 117 408C118.229 411.686 118.718 413.264 118 417C114.853 422.175 109.491 428.083 103.547 429.645C101.175 429.418 99.2462 428.784 97 428C96.1415 427.939 95.283 427.879 94.3984 427.816C91.1748 427.431 89.5776 427.016 87 425C84.1559 419.545 82 412.141 82 406Z" fill="#BFC7CE"/>
<path d="M241 358C241.33 358 241.66 358 242 358C242.049 359.06 242.098 360.119 242.148 361.211C242.223 362.599 242.299 363.987 242.375 365.375C242.406 366.074 242.437 366.772 242.469 367.492C242.595 371.702 242.595 371.702 245 375C247.18 375.31 247.18 375.31 249.684 375.266C250.611 375.268 251.539 375.271 252.494 375.273C253.465 375.266 254.437 375.258 255.437 375.25C256.405 375.258 257.372 375.265 258.369 375.273C259.298 375.271 260.227 375.268 261.184 375.266C262.035 375.263 262.886 375.261 263.763 375.259C266.285 375.139 266.285 375.139 269 373C269.384 370.39 269.603 367.994 269.687 365.375C269.722 364.669 269.756 363.962 269.791 363.234C269.873 361.49 269.938 359.745 270 358C270.33 358 270.66 358 271 358C271.145 361.583 271.234 365.165 271.312 368.75C271.354 369.766 271.396 370.782 271.439 371.828C271.561 379.209 271.561 379.209 269.105 382.672C264.682 384.564 260.764 384.583 256 384.5C255.111 384.515 254.221 384.531 253.305 384.547C249.388 384.523 246.52 384.222 242.895 382.672C239.822 378.339 240.475 373.91 240.687 368.75C240.71 367.719 240.733 366.688 240.756 365.625C240.815 363.082 240.897 360.542 241 358Z" fill="#6BB0B8"/>
<path d="M428 100C428.66 101.32 429.32 102.64 430 104C428.603 105.67 427.199 107.334 425.766 108.973C424.601 110.31 423.465 111.672 422.359 113.059C418.272 117.805 418.272 117.805 414.906 118.32C412.506 118.109 410.332 117.601 408 117C406.668 116.832 406.668 116.832 405.309 116.66C402.389 116.146 400.462 115.669 398 114C396.233 110.093 395.513 106.242 395 102C395.99 102 396.98 102 398 102C398 103.32 398 104.64 398 106C400.963 106.501 403.925 106.994 406.895 107.457C410 108 410 108 413.75 109.125C417.812 108.969 418.459 107.956 421.25 105.125C421.895 104.385 422.539 103.645 423.203 102.883C425 101 425 101 428 100Z" fill="#BFC7CE"/>
<path d="M240 478C243.423 479.215 246.349 480.809 249.438 482.688C252.226 484.229 253.725 484.982 256.938 485.188C260.872 483.662 264.285 481.559 267.828 479.277C270 478 270 478 272 478C272.367 481.01 272.618 483.087 272 486C269.968 488.355 267.533 489.668 264.812 491.125C263.802 491.74 263.802 491.74 262.771 492.367C257.833 495.181 257.833 495.181 254.406 494.438C253.612 493.963 252.818 493.489 252 493C250.973 492.523 249.945 492.046 248.887 491.555C240.378 487.087 240.378 487.087 239.223 483.762C239.25 481.562 239.25 481.562 240 478Z" fill="#BEC6CE"/>
<path d="M257.594 457.563C258.388 458.037 259.182 458.511 260 459C261.027 459.477 262.055 459.954 263.113 460.445C271.622 464.913 271.622 464.913 272.777 468.238C272.75 470.438 272.75 470.438 272 474C268.577 472.785 265.651 471.191 262.563 469.313C259.774 467.771 258.275 467.018 255.063 466.813C251.128 468.338 247.715 470.441 244.172 472.723C242 474 242 474 240 474C239.633 470.99 239.382 468.913 240 466C242.032 463.645 244.467 462.333 247.188 460.875C247.861 460.465 248.535 460.055 249.229 459.633C254.167 456.819 254.167 456.819 257.594 457.563Z" fill="#EDF2F7"/>
<path d="M464 258C467.423 259.215 470.349 260.809 473.438 262.688C476.226 264.229 477.725 264.982 480.938 265.188C484.872 263.662 488.285 261.559 491.828 259.277C494 258 494 258 496 258C496.367 261.01 496.618 263.087 496 266C493.968 268.355 491.533 269.668 488.812 271.125C487.802 271.74 487.802 271.74 486.771 272.367C481.833 275.181 481.833 275.181 478.406 274.438C477.612 273.963 476.818 273.489 476 273C474.973 272.523 473.945 272.046 472.887 271.555C464.378 267.087 464.378 267.087 463.223 263.762C463.25 261.562 463.25 261.562 464 258Z" fill="#BEC6CE"/>
<path d="M16 258C19.4235 259.215 22.3487 260.809 25.4375 262.688C28.2263 264.229 29.7247 264.982 32.9375 265.188C36.8723 263.662 40.2854 261.559 43.8281 259.277C46 258 46 258 48 258C48.3675 261.01 48.6178 263.087 48 266C45.9679 268.355 43.5326 269.668 40.8125 271.125C39.8022 271.74 39.8022 271.74 38.7715 272.367C33.8333 275.181 33.8333 275.181 30.4062 274.438C29.6122 273.963 28.8181 273.489 28 273C26.9726 272.523 25.9452 272.046 24.8867 271.555C16.3775 267.087 16.3775 267.087 15.2227 263.762C15.25 261.562 15.25 261.562 16 258Z" fill="#BEC6CE"/>
<path d="M481.594 237.563C482.388 238.037 483.182 238.511 484 239C485.027 239.477 486.055 239.954 487.113 240.445C495.622 244.913 495.622 244.913 496.777 248.238C496.75 250.438 496.75 250.438 496 254C492.577 252.785 489.651 251.191 486.563 249.313C483.774 247.771 482.275 247.018 479.063 246.813C475.128 248.338 471.715 250.441 468.172 252.723C466 254 466 254 464 254C463.633 250.99 463.382 248.913 464 246C466.032 243.645 468.467 242.333 471.188 240.875C471.861 240.465 472.535 240.055 473.229 239.633C478.167 236.819 478.167 236.819 481.594 237.563Z" fill="#EDF2F7"/>
<path d="M33.5938 237.563C34.3878 238.037 35.1819 238.511 36 239C37.0274 239.477 38.0548 239.954 39.1133 240.445C47.6225 244.913 47.6225 244.913 48.7774 248.238C48.75 250.438 48.75 250.438 48 254C44.5765 252.785 41.6513 251.191 38.5625 249.313C35.7737 247.771 34.2753 247.018 31.0625 246.813C27.1277 248.338 23.7147 250.441 20.1719 252.723C18 254 18 254 16 254C15.6325 250.99 15.3822 248.913 16 246C18.0321 243.645 20.4674 242.333 23.1875 240.875C23.861 240.465 24.5346 240.055 25.2285 239.633C30.1667 236.819 30.1667 236.819 33.5938 237.563Z" fill="#EDF2F7"/>
<path d="M240 38C243.423 39.2148 246.349 40.8092 249.438 42.6875C252.226 44.2287 253.725 44.9824 256.938 45.1875C260.872 43.6618 264.285 41.5587 267.828 39.2773C270 38 270 38 272 38C272.367 41.0102 272.618 43.0874 272 46C269.968 48.3547 267.533 49.6675 264.812 51.125C263.802 51.7399 263.802 51.7399 262.771 52.3672C257.833 55.1807 257.833 55.1807 254.406 54.4375C253.612 53.9631 252.818 53.4888 252 53C250.973 52.523 249.945 52.0461 248.887 51.5547C240.378 47.0871 240.378 47.0871 239.223 43.7617C239.25 41.5625 239.25 41.5625 240 38Z" fill="#BEC6CE"/>
<path d="M257.594 17.5625C258.388 18.0369 259.182 18.5113 260 19C261.027 19.477 262.055 19.9539 263.113 20.4453C271.622 24.9129 271.622 24.9129 272.777 28.2383C272.75 30.4375 272.75 30.4375 272 34C268.577 32.7852 265.651 31.1909 262.563 29.3125C259.774 27.7714 258.275 27.0176 255.063 26.8125C251.128 28.3383 247.715 30.4413 244.172 32.7227C242 34 242 34 240 34C239.633 30.9898 239.382 28.9127 240 26C242.032 23.6453 244.467 22.3325 247.188 20.875C247.861 20.4651 248.535 20.0552 249.229 19.6328C254.167 16.8193 254.167 16.8193 257.594 17.5625Z" fill="#EDF2F7"/>
<path d="M417 394C419.208 395.655 420.969 397.178 422.875 399.125C423.385 399.599 423.896 400.074 424.422 400.562C425.867 402.008 425.867 402.008 428 405C427.82 408.367 427.82 408.367 427 411C423.92 409.815 422.337 408.27 420.25 405.812C417.614 403.111 417.307 403.005 413.25 402.937C411.824 403.251 410.407 403.61 409 404C408.121 404.204 407.242 404.407 406.336 404.617C401.217 405.643 401.217 405.643 397.711 409.105C397.476 409.731 397.242 410.356 397 411C396.67 411 396.34 411 396 411C395.808 406.193 395.872 402.361 398 398C401.082 396.539 401.082 396.539 404.813 395.625C406.036 395.308 407.259 394.991 408.52 394.664C414.388 393.544 414.388 393.544 417 394Z" fill="#ECF1F7"/>
<path d="M99.5 393.687C101.013 394.076 102.514 394.517 104 395C104.896 395.186 105.792 395.371 106.715 395.562C109.325 396.162 111.597 396.819 114 398C116.457 402.158 116.19 406.245 116 411C115.34 410.34 114.68 409.68 114 409C114 408.01 114 407.02 114 406C113.01 405.876 112.02 405.752 111 405.625C108.211 405.241 105.584 404.637 102.875 403.875C98.2946 402.749 98.2946 402.749 94 404C91.5043 406.191 89.2289 408.54 87 411C85.4375 409.75 85.4375 409.75 84 408C84.068 403.963 86.8645 401.498 89.5 398.687C95.129 393.25 95.129 393.25 99.5 393.687Z" fill="#EDF2F7"/>
<path d="M410.562 82.6251C412.057 83.0323 413.536 83.4945 415 84.0001C416.342 84.2804 416.342 84.2804 417.711 84.5665C420.327 85.1624 422.596 85.8094 425 87.0001C427.066 90.6556 427.244 93.8496 427 98.0001C426.34 97.6701 425.68 97.3401 425 97.0001C425 96.3401 425 95.6801 425 95.0001C422.319 94.4925 419.639 94.001 416.949 93.543C414 93.0001 414 93.0001 411.77 92.3633C409.532 91.7101 409.532 91.7101 406 92.0001C403.593 93.8857 401.658 95.899 399.664 98.2149C399.115 98.804 398.566 99.3931 398 100C397.34 100 396.68 100 396 100C395.195 97.3711 395.195 97.3711 395 94.0001C396.575 91.6073 397.853 89.999 399.875 88.0626C400.38 87.5725 400.885 87.0825 401.406 86.5777C404.382 83.9032 406.495 82.2234 410.562 82.6251Z" fill="#EDF3F8"/>
<path d="M106 83.0001C108.809 84.9415 108.809 84.9415 111.437 87.5626C112.323 88.4095 113.209 89.2564 114.121 90.129C116 93.0001 116 93.0001 115.785 96.8399C115.526 97.8828 115.267 98.9256 115 100C113.874 99.0428 112.749 98.0842 111.625 97.1251C110.998 96.5914 110.372 96.0577 109.727 95.5079C108.442 94.3857 107.206 93.2063 106 92.0001C99.6006 92.4655 93.299 93.8074 87 95.0001C86.67 95.9901 86.34 96.9801 86 98.0001C84.734 93.6957 85.0696 91.0527 87 87.0001C89.8281 85.5391 89.8281 85.5391 93.25 84.6251C94.3689 84.308 95.4878 83.9908 96.6406 83.6641C100.002 82.9997 102.6 82.5494 106 83.0001Z" fill="#EDF2F7"/>
<path d="M250.625 127.602C251.496 127.598 252.368 127.594 253.266 127.59C254.168 127.601 255.07 127.613 256 127.625C257.354 127.608 257.354 127.608 258.734 127.59C260.041 127.596 260.041 127.596 261.375 127.602C262.166 127.605 262.958 127.608 263.773 127.612C266.546 128.095 267.947 129.104 270 131C270.528 133.761 270.186 136.164 270 139C269.01 138.34 268.02 137.68 267 137C264.63 136.692 264.63 136.692 262 136.734C261.031 136.732 260.061 136.729 259.062 136.727C258.052 136.734 257.041 136.742 256 136.75C254.989 136.742 253.979 136.735 252.938 136.727C251.483 136.73 251.483 136.73 250 136.734C249.113 136.737 248.226 136.739 247.312 136.741C244.725 136.852 244.725 136.852 242 139C241.609 133.043 241.609 133.043 242 131C244.85 128.367 246.775 127.618 250.625 127.602Z" fill="#A3E3EA"/>
</g>
<defs>
<clipPath id="clip0_8_668">
<rect width="512" height="512" fill="white"/>
</clipPath>
</defs>
</svg>
