<svg xmlns="http://www.w3.org/2000/svg" width="32" height="32" fill="none" viewBox="0 0 32 32" id="phone">
  <rect width="19.938" height="27.922" x="6.031" y="2.035" fill="url(#paint0_linear_18_19048)" rx="2.6"></rect>
  <rect width="19.938" height="27.922" x="6.031" y="2.035" fill="url(#paint1_linear_18_19048)" rx="2.6"></rect>
  <g filter="url(#filter0_ii_18_19048)">
    <path fill="#FF9544" d="M9.20312 9.07998C9.20312 8.74861 9.47175 8.47998 9.80313 8.47998H11.9156C12.247 8.47998 12.5156 8.74861 12.5156 9.07998V11.1925C12.5156 11.5239 12.247 11.7925 11.9156 11.7925H9.80312C9.47175 11.7925 9.20312 11.5239 9.20312 11.1925V9.07998Z"></path>
    <path fill="url(#paint2_linear_18_19048)" d="M9.20312 9.07998C9.20312 8.74861 9.47175 8.47998 9.80313 8.47998H11.9156C12.247 8.47998 12.5156 8.74861 12.5156 9.07998V11.1925C12.5156 11.5239 12.247 11.7925 11.9156 11.7925H9.80312C9.47175 11.7925 9.20312 11.5239 9.20312 11.1925V9.07998Z"></path>
  </g>
  <g filter="url(#filter1_ii_18_19048)">
    <path fill="#38C6FF" d="M14.3438 9.07998C14.3438 8.74861 14.6124 8.47998 14.9438 8.47998H17.0563C17.3876 8.47998 17.6562 8.74861 17.6562 9.07998V11.1925C17.6562 11.5239 17.3876 11.7925 17.0563 11.7925H14.9437C14.6124 11.7925 14.3438 11.5239 14.3438 11.1925V9.07998Z"></path>
  </g>
  <g filter="url(#filter2_ii_18_19048)">
    <path fill="#FFEC58" d="M19.4844 9.07998C19.4844 8.74861 19.753 8.47998 20.0844 8.47998H22.1969C22.5282 8.47998 22.7969 8.74861 22.7969 9.07998V11.1925C22.7969 11.5239 22.5282 11.7925 22.1969 11.7925H20.0844C19.753 11.7925 19.4844 11.5239 19.4844 11.1925V9.07998Z"></path>
  </g>
  <g filter="url(#filter3_ii_18_19048)">
    <path fill="#38C6FF" d="M9.20312 14.9394C9.20312 14.608 9.47175 14.3394 9.80313 14.3394H11.9156C12.247 14.3394 12.5156 14.608 12.5156 14.9394V17.0519C12.5156 17.3832 12.247 17.6519 11.9156 17.6519H9.80312C9.47175 17.6519 9.20312 17.3832 9.20312 17.0519V14.9394Z"></path>
  </g>
  <g filter="url(#filter4_ii_18_19048)">
    <path fill="#FF9544" d="M9.20312 20.7987C9.20312 20.4674 9.47175 20.1987 9.80313 20.1987H11.9156C12.247 20.1987 12.5156 20.4674 12.5156 20.7987V22.9112C12.5156 23.2426 12.247 23.5112 11.9156 23.5112H9.80312C9.47175 23.5112 9.20312 23.2426 9.20312 22.9112V20.7987Z"></path>
    <path fill="url(#paint3_linear_18_19048)" d="M9.20312 20.7987C9.20312 20.4674 9.47175 20.1987 9.80313 20.1987H11.9156C12.247 20.1987 12.5156 20.4674 12.5156 20.7987V22.9112C12.5156 23.2426 12.247 23.5112 11.9156 23.5112H9.80312C9.47175 23.5112 9.20312 23.2426 9.20312 22.9112V20.7987Z"></path>
  </g>
  <g filter="url(#filter5_ii_18_19048)">
    <path fill="#FFEC58" d="M14.3438 14.9394C14.3438 14.608 14.6124 14.3394 14.9438 14.3394H17.0563C17.3876 14.3394 17.6562 14.608 17.6562 14.9394V17.0519C17.6562 17.3832 17.3876 17.6519 17.0563 17.6519H14.9437C14.6124 17.6519 14.3438 17.3832 14.3438 17.0519V14.9394Z"></path>
  </g>
  <g filter="url(#filter6_ii_18_19048)">
    <path fill="#38C6FF" d="M14.3438 20.7987C14.3438 20.4674 14.6124 20.1987 14.9438 20.1987H17.0563C17.3876 20.1987 17.6562 20.4674 17.6562 20.7987V22.9112C17.6562 23.2426 17.3876 23.5112 17.0563 23.5112H14.9437C14.6124 23.5112 14.3438 23.2426 14.3438 22.9112V20.7987Z"></path>
  </g>
  <g filter="url(#filter7_ii_18_19048)">
    <path fill="#FF9544" d="M19.4844 14.9394C19.4844 14.608 19.753 14.3394 20.0844 14.3394H22.1969C22.5282 14.3394 22.7969 14.608 22.7969 14.9394V17.0519C22.7969 17.3832 22.5282 17.6519 22.1969 17.6519H20.0844C19.753 17.6519 19.4844 17.3832 19.4844 17.0519V14.9394Z"></path>
    <path fill="url(#paint4_linear_18_19048)" d="M19.4844 14.9394C19.4844 14.608 19.753 14.3394 20.0844 14.3394H22.1969C22.5282 14.3394 22.7969 14.608 22.7969 14.9394V17.0519C22.7969 17.3832 22.5282 17.6519 22.1969 17.6519H20.0844C19.753 17.6519 19.4844 17.3832 19.4844 17.0519V14.9394Z"></path>
  </g>
  <g filter="url(#filter8_ii_18_19048)">
    <path fill="#FFEC58" d="M19.4844 20.7987C19.4844 20.4674 19.753 20.1987 20.0844 20.1987H22.1969C22.5282 20.1987 22.7969 20.4674 22.7969 20.7987V22.9112C22.7969 23.2426 22.5282 23.5112 22.1969 23.5112H20.0844C19.753 23.5112 19.4844 23.2426 19.4844 22.9112V20.7987Z"></path>
  </g>
  <g filter="url(#filter9_f_18_19048)">
    <rect width="1.531" height="21.844" x="23.688" y="5.597" fill="url(#paint5_linear_18_19048)"></rect>
  </g>
  <g filter="url(#filter10_i_18_19048)">
    <path fill="url(#paint6_linear_18_19048)" d="M25.9688 6.15967H6.03125V4.63467C6.03125 3.19873 7.19531 2.03467 8.63125 2.03467H23.3688C24.8047 2.03467 25.9688 3.19873 25.9688 4.63467V6.15967Z"></path>
    <path fill="url(#paint7_linear_18_19048)" d="M25.9688 6.15967H6.03125V4.63467C6.03125 3.19873 7.19531 2.03467 8.63125 2.03467H23.3688C24.8047 2.03467 25.9688 3.19873 25.9688 4.63467V6.15967Z"></path>
    <path fill="url(#paint8_linear_18_19048)" d="M25.9688 6.15967H6.03125V4.63467C6.03125 3.19873 7.19531 2.03467 8.63125 2.03467H23.3688C24.8047 2.03467 25.9688 3.19873 25.9688 4.63467V6.15967Z"></path>
    <path fill="url(#paint9_linear_18_19048)" d="M25.9688 6.15967H6.03125V4.63467C6.03125 3.19873 7.19531 2.03467 8.63125 2.03467H23.3688C24.8047 2.03467 25.9688 3.19873 25.9688 4.63467V6.15967Z"></path>
    <path fill="url(#paint10_radial_18_19048)" d="M25.9688 6.15967H6.03125V4.63467C6.03125 3.19873 7.19531 2.03467 8.63125 2.03467H23.3688C24.8047 2.03467 25.9688 3.19873 25.9688 4.63467V6.15967Z"></path>
  </g>
  <path fill="url(#paint11_linear_18_19048)" d="M25.9688 25.8784V27.3565C25.9688 28.7925 24.8047 29.9565 23.3688 29.9565H8.63125C7.19531 29.9565 6.03125 28.7925 6.03125 27.3565V25.8784H25.9688Z"></path>
  <path fill="url(#paint12_linear_18_19048)" d="M25.9688 25.8784V27.3565C25.9688 28.7925 24.8047 29.9565 23.3688 29.9565H8.63125C7.19531 29.9565 6.03125 28.7925 6.03125 27.3565V25.8784H25.9688Z"></path>
  <path fill="url(#paint13_radial_18_19048)" d="M25.9688 25.8784V27.3565C25.9688 28.7925 24.8047 29.9565 23.3688 29.9565H8.63125C7.19531 29.9565 6.03125 28.7925 6.03125 27.3565V25.8784H25.9688Z"></path>
  <path fill="url(#paint14_linear_18_19048)" d="M25.9688 25.8784V27.3565C25.9688 28.7925 24.8047 29.9565 23.3688 29.9565H8.63125C7.19531 29.9565 6.03125 28.7925 6.03125 27.3565V25.8784H25.9688Z"></path>
  <defs>
    <linearGradient id="paint0_linear_18_19048" x1="16" x2="16" y1="7.441" y2="26.003" gradientUnits="userSpaceOnUse">
      <stop stop-color="#62326D"></stop>
      <stop offset="1" stop-color="#434486"></stop>
    </linearGradient>
    <linearGradient id="paint1_linear_18_19048" x1="6.031" x2="8.344" y1="21.816" y2="21.878" gradientUnits="userSpaceOnUse">
      <stop offset=".031" stop-color="#412C4C"></stop>
      <stop offset="1" stop-color="#412C4C" stop-opacity="0"></stop>
    </linearGradient>
    <linearGradient id="paint2_linear_18_19048" x1="9.359" x2="10.406" y1="10.957" y2="10.957" gradientUnits="userSpaceOnUse">
      <stop offset=".333" stop-color="#FF945C"></stop>
      <stop offset="1" stop-color="#FF945C" stop-opacity="0"></stop>
    </linearGradient>
    <linearGradient id="paint3_linear_18_19048" x1="9.359" x2="10.406" y1="22.675" y2="22.675" gradientUnits="userSpaceOnUse">
      <stop offset=".333" stop-color="#FF945C"></stop>
      <stop offset="1" stop-color="#FF945C" stop-opacity="0"></stop>
    </linearGradient>
    <linearGradient id="paint4_linear_18_19048" x1="19.641" x2="20.688" y1="16.816" y2="16.816" gradientUnits="userSpaceOnUse">
      <stop offset=".333" stop-color="#FF945C"></stop>
      <stop offset="1" stop-color="#FF945C" stop-opacity="0"></stop>
    </linearGradient>
    <linearGradient id="paint5_linear_18_19048" x1="24.453" x2="24.453" y1="5.597" y2="27.441" gradientUnits="userSpaceOnUse">
      <stop stop-color="#674876"></stop>
      <stop offset="1" stop-color="#555187"></stop>
    </linearGradient>
    <linearGradient id="paint6_linear_18_19048" x1="16" x2="16" y1="2.035" y2="6.16" gradientUnits="userSpaceOnUse">
      <stop stop-color="#636AB6"></stop>
      <stop offset="1" stop-color="#6C6EBE"></stop>
    </linearGradient>
    <linearGradient id="paint7_linear_18_19048" x1="17.156" x2="17.156" y1="6.316" y2="5.628" gradientUnits="userSpaceOnUse">
      <stop stop-color="#6062B1"></stop>
      <stop offset="1" stop-color="#6062B1" stop-opacity="0"></stop>
    </linearGradient>
    <linearGradient id="paint8_linear_18_19048" x1="6.031" x2="9.25" y1="6.16" y2="6.16" gradientUnits="userSpaceOnUse">
      <stop offset=".136" stop-color="#484B86"></stop>
      <stop offset="1" stop-color="#5E61AD" stop-opacity="0"></stop>
    </linearGradient>
    <linearGradient id="paint9_linear_18_19048" x1="25.969" x2="23.031" y1="6.16" y2="6.16" gradientUnits="userSpaceOnUse">
      <stop offset=".128" stop-color="#7277C8"></stop>
      <stop offset="1" stop-color="#7277C8" stop-opacity="0"></stop>
    </linearGradient>
    <linearGradient id="paint11_linear_18_19048" x1="16" x2="16" y1="25.878" y2="29.956" gradientUnits="userSpaceOnUse">
      <stop stop-color="#6B4390"></stop>
      <stop offset="1" stop-color="#76509E"></stop>
    </linearGradient>
    <linearGradient id="paint12_linear_18_19048" x1="6.031" x2="8.438" y1="27.128" y2="27.128" gradientUnits="userSpaceOnUse">
      <stop offset=".164" stop-color="#4F3D6C"></stop>
      <stop offset="1" stop-color="#6E4693" stop-opacity="0"></stop>
    </linearGradient>
    <linearGradient id="paint14_linear_18_19048" x1="15.688" x2="15.688" y1="25.597" y2="26.191" gradientUnits="userSpaceOnUse">
      <stop offset=".158" stop-color="#5E3D7F"></stop>
      <stop offset="1" stop-color="#5E3D7F" stop-opacity="0"></stop>
    </linearGradient>
    <filter id="filter0_ii_18_19048" width="3.913" height="3.913" x="8.903" y="8.18" color-interpolation-filters="sRGB" filterUnits="userSpaceOnUse">
      <feFlood flood-opacity="0" result="BackgroundImageFix"></feFlood>
      <feBlend in="SourceGraphic" in2="BackgroundImageFix" result="shape"></feBlend>
      <feColorMatrix in="SourceAlpha" result="hardAlpha" values="0 0 0 0 0 0 0 0 0 0 0 0 0 0 0 0 0 0 127 0"></feColorMatrix>
      <feOffset dx="-.3" dy="-.3"></feOffset>
      <feGaussianBlur stdDeviation=".2"></feGaussianBlur>
      <feComposite in2="hardAlpha" k2="-1" k3="1" operator="arithmetic"></feComposite>
      <feColorMatrix values="0 0 0 0 0.913725 0 0 0 0 0.384314 0 0 0 0 0.129412 0 0 0 1 0"></feColorMatrix>
      <feBlend in2="shape" result="effect1_innerShadow_18_19048"></feBlend>
      <feColorMatrix in="SourceAlpha" result="hardAlpha" values="0 0 0 0 0 0 0 0 0 0 0 0 0 0 0 0 0 0 127 0"></feColorMatrix>
      <feOffset dx=".3" dy=".3"></feOffset>
      <feGaussianBlur stdDeviation=".2"></feGaussianBlur>
      <feComposite in2="hardAlpha" k2="-1" k3="1" operator="arithmetic"></feComposite>
      <feColorMatrix values="0 0 0 0 1 0 0 0 0 0.498039 0 0 0 0 0.160784 0 0 0 1 0"></feColorMatrix>
      <feBlend in2="effect1_innerShadow_18_19048" result="effect2_innerShadow_18_19048"></feBlend>
    </filter>
    <filter id="filter1_ii_18_19048" width="3.913" height="3.913" x="14.044" y="8.18" color-interpolation-filters="sRGB" filterUnits="userSpaceOnUse">
      <feFlood flood-opacity="0" result="BackgroundImageFix"></feFlood>
      <feBlend in="SourceGraphic" in2="BackgroundImageFix" result="shape"></feBlend>
      <feColorMatrix in="SourceAlpha" result="hardAlpha" values="0 0 0 0 0 0 0 0 0 0 0 0 0 0 0 0 0 0 127 0"></feColorMatrix>
      <feOffset dx="-.3" dy="-.3"></feOffset>
      <feGaussianBlur stdDeviation=".25"></feGaussianBlur>
      <feComposite in2="hardAlpha" k2="-1" k3="1" operator="arithmetic"></feComposite>
      <feColorMatrix values="0 0 0 0 0.0980392 0 0 0 0 0.572549 0 0 0 0 0.866667 0 0 0 1 0"></feColorMatrix>
      <feBlend in2="shape" result="effect1_innerShadow_18_19048"></feBlend>
      <feColorMatrix in="SourceAlpha" result="hardAlpha" values="0 0 0 0 0 0 0 0 0 0 0 0 0 0 0 0 0 0 127 0"></feColorMatrix>
      <feOffset dx=".3" dy=".3"></feOffset>
      <feGaussianBlur stdDeviation=".2"></feGaussianBlur>
      <feComposite in2="hardAlpha" k2="-1" k3="1" operator="arithmetic"></feComposite>
      <feColorMatrix values="0 0 0 0 0.0745098 0 0 0 0 0.709804 0 0 0 0 1 0 0 0 1 0"></feColorMatrix>
      <feBlend in2="effect1_innerShadow_18_19048" result="effect2_innerShadow_18_19048"></feBlend>
    </filter>
    <filter id="filter2_ii_18_19048" width="3.913" height="3.913" x="19.184" y="8.18" color-interpolation-filters="sRGB" filterUnits="userSpaceOnUse">
      <feFlood flood-opacity="0" result="BackgroundImageFix"></feFlood>
      <feBlend in="SourceGraphic" in2="BackgroundImageFix" result="shape"></feBlend>
      <feColorMatrix in="SourceAlpha" result="hardAlpha" values="0 0 0 0 0 0 0 0 0 0 0 0 0 0 0 0 0 0 127 0"></feColorMatrix>
      <feOffset dx="-.3" dy="-.3"></feOffset>
      <feGaussianBlur stdDeviation=".25"></feGaussianBlur>
      <feComposite in2="hardAlpha" k2="-1" k3="1" operator="arithmetic"></feComposite>
      <feColorMatrix values="0 0 0 0 0.858824 0 0 0 0 0.752941 0 0 0 0 0.188235 0 0 0 1 0"></feColorMatrix>
      <feBlend in2="shape" result="effect1_innerShadow_18_19048"></feBlend>
      <feColorMatrix in="SourceAlpha" result="hardAlpha" values="0 0 0 0 0 0 0 0 0 0 0 0 0 0 0 0 0 0 127 0"></feColorMatrix>
      <feOffset dx=".3" dy=".3"></feOffset>
      <feGaussianBlur stdDeviation=".2"></feGaussianBlur>
      <feComposite in2="hardAlpha" k2="-1" k3="1" operator="arithmetic"></feComposite>
      <feColorMatrix values="0 0 0 0 0.968627 0 0 0 0 0.858824 0 0 0 0 0.223529 0 0 0 1 0"></feColorMatrix>
      <feBlend in2="effect1_innerShadow_18_19048" result="effect2_innerShadow_18_19048"></feBlend>
    </filter>
    <filter id="filter3_ii_18_19048" width="3.913" height="3.913" x="8.903" y="14.039" color-interpolation-filters="sRGB" filterUnits="userSpaceOnUse">
      <feFlood flood-opacity="0" result="BackgroundImageFix"></feFlood>
      <feBlend in="SourceGraphic" in2="BackgroundImageFix" result="shape"></feBlend>
      <feColorMatrix in="SourceAlpha" result="hardAlpha" values="0 0 0 0 0 0 0 0 0 0 0 0 0 0 0 0 0 0 127 0"></feColorMatrix>
      <feOffset dx="-.3" dy="-.3"></feOffset>
      <feGaussianBlur stdDeviation=".25"></feGaussianBlur>
      <feComposite in2="hardAlpha" k2="-1" k3="1" operator="arithmetic"></feComposite>
      <feColorMatrix values="0 0 0 0 0.0980392 0 0 0 0 0.572549 0 0 0 0 0.866667 0 0 0 1 0"></feColorMatrix>
      <feBlend in2="shape" result="effect1_innerShadow_18_19048"></feBlend>
      <feColorMatrix in="SourceAlpha" result="hardAlpha" values="0 0 0 0 0 0 0 0 0 0 0 0 0 0 0 0 0 0 127 0"></feColorMatrix>
      <feOffset dx=".3" dy=".3"></feOffset>
      <feGaussianBlur stdDeviation=".2"></feGaussianBlur>
      <feComposite in2="hardAlpha" k2="-1" k3="1" operator="arithmetic"></feComposite>
      <feColorMatrix values="0 0 0 0 0.0745098 0 0 0 0 0.709804 0 0 0 0 1 0 0 0 1 0"></feColorMatrix>
      <feBlend in2="effect1_innerShadow_18_19048" result="effect2_innerShadow_18_19048"></feBlend>
    </filter>
    <filter id="filter4_ii_18_19048" width="3.913" height="3.913" x="8.903" y="19.899" color-interpolation-filters="sRGB" filterUnits="userSpaceOnUse">
      <feFlood flood-opacity="0" result="BackgroundImageFix"></feFlood>
      <feBlend in="SourceGraphic" in2="BackgroundImageFix" result="shape"></feBlend>
      <feColorMatrix in="SourceAlpha" result="hardAlpha" values="0 0 0 0 0 0 0 0 0 0 0 0 0 0 0 0 0 0 127 0"></feColorMatrix>
      <feOffset dx="-.3" dy="-.3"></feOffset>
      <feGaussianBlur stdDeviation=".2"></feGaussianBlur>
      <feComposite in2="hardAlpha" k2="-1" k3="1" operator="arithmetic"></feComposite>
      <feColorMatrix values="0 0 0 0 0.913725 0 0 0 0 0.384314 0 0 0 0 0.129412 0 0 0 1 0"></feColorMatrix>
      <feBlend in2="shape" result="effect1_innerShadow_18_19048"></feBlend>
      <feColorMatrix in="SourceAlpha" result="hardAlpha" values="0 0 0 0 0 0 0 0 0 0 0 0 0 0 0 0 0 0 127 0"></feColorMatrix>
      <feOffset dx=".3" dy=".3"></feOffset>
      <feGaussianBlur stdDeviation=".2"></feGaussianBlur>
      <feComposite in2="hardAlpha" k2="-1" k3="1" operator="arithmetic"></feComposite>
      <feColorMatrix values="0 0 0 0 1 0 0 0 0 0.498039 0 0 0 0 0.160784 0 0 0 1 0"></feColorMatrix>
      <feBlend in2="effect1_innerShadow_18_19048" result="effect2_innerShadow_18_19048"></feBlend>
    </filter>
    <filter id="filter5_ii_18_19048" width="3.913" height="3.913" x="14.044" y="14.039" color-interpolation-filters="sRGB" filterUnits="userSpaceOnUse">
      <feFlood flood-opacity="0" result="BackgroundImageFix"></feFlood>
      <feBlend in="SourceGraphic" in2="BackgroundImageFix" result="shape"></feBlend>
      <feColorMatrix in="SourceAlpha" result="hardAlpha" values="0 0 0 0 0 0 0 0 0 0 0 0 0 0 0 0 0 0 127 0"></feColorMatrix>
      <feOffset dx="-.3" dy="-.3"></feOffset>
      <feGaussianBlur stdDeviation=".25"></feGaussianBlur>
      <feComposite in2="hardAlpha" k2="-1" k3="1" operator="arithmetic"></feComposite>
      <feColorMatrix values="0 0 0 0 0.858824 0 0 0 0 0.752941 0 0 0 0 0.188235 0 0 0 1 0"></feColorMatrix>
      <feBlend in2="shape" result="effect1_innerShadow_18_19048"></feBlend>
      <feColorMatrix in="SourceAlpha" result="hardAlpha" values="0 0 0 0 0 0 0 0 0 0 0 0 0 0 0 0 0 0 127 0"></feColorMatrix>
      <feOffset dx=".3" dy=".3"></feOffset>
      <feGaussianBlur stdDeviation=".2"></feGaussianBlur>
      <feComposite in2="hardAlpha" k2="-1" k3="1" operator="arithmetic"></feComposite>
      <feColorMatrix values="0 0 0 0 0.968627 0 0 0 0 0.858824 0 0 0 0 0.223529 0 0 0 1 0"></feColorMatrix>
      <feBlend in2="effect1_innerShadow_18_19048" result="effect2_innerShadow_18_19048"></feBlend>
    </filter>
    <filter id="filter6_ii_18_19048" width="3.913" height="3.913" x="14.044" y="19.899" color-interpolation-filters="sRGB" filterUnits="userSpaceOnUse">
      <feFlood flood-opacity="0" result="BackgroundImageFix"></feFlood>
      <feBlend in="SourceGraphic" in2="BackgroundImageFix" result="shape"></feBlend>
      <feColorMatrix in="SourceAlpha" result="hardAlpha" values="0 0 0 0 0 0 0 0 0 0 0 0 0 0 0 0 0 0 127 0"></feColorMatrix>
      <feOffset dx="-.3" dy="-.3"></feOffset>
      <feGaussianBlur stdDeviation=".25"></feGaussianBlur>
      <feComposite in2="hardAlpha" k2="-1" k3="1" operator="arithmetic"></feComposite>
      <feColorMatrix values="0 0 0 0 0.0980392 0 0 0 0 0.572549 0 0 0 0 0.866667 0 0 0 1 0"></feColorMatrix>
      <feBlend in2="shape" result="effect1_innerShadow_18_19048"></feBlend>
      <feColorMatrix in="SourceAlpha" result="hardAlpha" values="0 0 0 0 0 0 0 0 0 0 0 0 0 0 0 0 0 0 127 0"></feColorMatrix>
      <feOffset dx=".3" dy=".3"></feOffset>
      <feGaussianBlur stdDeviation=".2"></feGaussianBlur>
      <feComposite in2="hardAlpha" k2="-1" k3="1" operator="arithmetic"></feComposite>
      <feColorMatrix values="0 0 0 0 0.0745098 0 0 0 0 0.709804 0 0 0 0 1 0 0 0 1 0"></feColorMatrix>
      <feBlend in2="effect1_innerShadow_18_19048" result="effect2_innerShadow_18_19048"></feBlend>
    </filter>
    <filter id="filter7_ii_18_19048" width="3.913" height="3.913" x="19.184" y="14.039" color-interpolation-filters="sRGB" filterUnits="userSpaceOnUse">
      <feFlood flood-opacity="0" result="BackgroundImageFix"></feFlood>
      <feBlend in="SourceGraphic" in2="BackgroundImageFix" result="shape"></feBlend>
      <feColorMatrix in="SourceAlpha" result="hardAlpha" values="0 0 0 0 0 0 0 0 0 0 0 0 0 0 0 0 0 0 127 0"></feColorMatrix>
      <feOffset dx="-.3" dy="-.3"></feOffset>
      <feGaussianBlur stdDeviation=".2"></feGaussianBlur>
      <feComposite in2="hardAlpha" k2="-1" k3="1" operator="arithmetic"></feComposite>
      <feColorMatrix values="0 0 0 0 0.913725 0 0 0 0 0.384314 0 0 0 0 0.129412 0 0 0 1 0"></feColorMatrix>
      <feBlend in2="shape" result="effect1_innerShadow_18_19048"></feBlend>
      <feColorMatrix in="SourceAlpha" result="hardAlpha" values="0 0 0 0 0 0 0 0 0 0 0 0 0 0 0 0 0 0 127 0"></feColorMatrix>
      <feOffset dx=".3" dy=".3"></feOffset>
      <feGaussianBlur stdDeviation=".2"></feGaussianBlur>
      <feComposite in2="hardAlpha" k2="-1" k3="1" operator="arithmetic"></feComposite>
      <feColorMatrix values="0 0 0 0 1 0 0 0 0 0.498039 0 0 0 0 0.160784 0 0 0 1 0"></feColorMatrix>
      <feBlend in2="effect1_innerShadow_18_19048" result="effect2_innerShadow_18_19048"></feBlend>
    </filter>
    <filter id="filter8_ii_18_19048" width="3.913" height="3.913" x="19.184" y="19.899" color-interpolation-filters="sRGB" filterUnits="userSpaceOnUse">
      <feFlood flood-opacity="0" result="BackgroundImageFix"></feFlood>
      <feBlend in="SourceGraphic" in2="BackgroundImageFix" result="shape"></feBlend>
      <feColorMatrix in="SourceAlpha" result="hardAlpha" values="0 0 0 0 0 0 0 0 0 0 0 0 0 0 0 0 0 0 127 0"></feColorMatrix>
      <feOffset dx="-.3" dy="-.3"></feOffset>
      <feGaussianBlur stdDeviation=".25"></feGaussianBlur>
      <feComposite in2="hardAlpha" k2="-1" k3="1" operator="arithmetic"></feComposite>
      <feColorMatrix values="0 0 0 0 0.858824 0 0 0 0 0.752941 0 0 0 0 0.188235 0 0 0 1 0"></feColorMatrix>
      <feBlend in2="shape" result="effect1_innerShadow_18_19048"></feBlend>
      <feColorMatrix in="SourceAlpha" result="hardAlpha" values="0 0 0 0 0 0 0 0 0 0 0 0 0 0 0 0 0 0 127 0"></feColorMatrix>
      <feOffset dx=".3" dy=".3"></feOffset>
      <feGaussianBlur stdDeviation=".2"></feGaussianBlur>
      <feComposite in2="hardAlpha" k2="-1" k3="1" operator="arithmetic"></feComposite>
      <feColorMatrix values="0 0 0 0 0.968627 0 0 0 0 0.858824 0 0 0 0 0.223529 0 0 0 1 0"></feColorMatrix>
      <feBlend in2="effect1_innerShadow_18_19048" result="effect2_innerShadow_18_19048"></feBlend>
    </filter>
    <filter id="filter9_f_18_19048" width="3.531" height="23.844" x="22.688" y="4.597" color-interpolation-filters="sRGB" filterUnits="userSpaceOnUse">
      <feFlood flood-opacity="0" result="BackgroundImageFix"></feFlood>
      <feBlend in="SourceGraphic" in2="BackgroundImageFix" result="shape"></feBlend>
      <feGaussianBlur result="effect1_foregroundBlur_18_19048" stdDeviation=".5"></feGaussianBlur>
    </filter>
    <filter id="filter10_i_18_19048" width="19.938" height="4.225" x="6.031" y="2.035" color-interpolation-filters="sRGB" filterUnits="userSpaceOnUse">
      <feFlood flood-opacity="0" result="BackgroundImageFix"></feFlood>
      <feBlend in="SourceGraphic" in2="BackgroundImageFix" result="shape"></feBlend>
      <feColorMatrix in="SourceAlpha" result="hardAlpha" values="0 0 0 0 0 0 0 0 0 0 0 0 0 0 0 0 0 0 127 0"></feColorMatrix>
      <feOffset dy=".1"></feOffset>
      <feGaussianBlur stdDeviation=".375"></feGaussianBlur>
      <feComposite in2="hardAlpha" k2="-1" k3="1" operator="arithmetic"></feComposite>
      <feColorMatrix values="0 0 0 0 0.380392 0 0 0 0 0.407843 0 0 0 0 0.666667 0 0 0 1 0"></feColorMatrix>
      <feBlend in2="shape" result="effect1_innerShadow_18_19048"></feBlend>
    </filter>
    <radialGradient id="paint10_radial_18_19048" cx="0" cy="0" r="1" gradientTransform="matrix(-.65625 0 0 -3.17187 25.969 5.878)" gradientUnits="userSpaceOnUse">
      <stop stop-color="#6C6FB4"></stop>
      <stop offset="1" stop-color="#6C6FB4" stop-opacity="0"></stop>
    </radialGradient>
    <radialGradient id="paint13_radial_18_19048" cx="0" cy="0" r="1" gradientTransform="matrix(0 3.09375 -1.625 0 24.313 25.535)" gradientUnits="userSpaceOnUse">
      <stop stop-color="#6B5094"></stop>
      <stop offset="1" stop-color="#6B5094" stop-opacity="0"></stop>
    </radialGradient>
  </defs>
</svg>