<svg width="50" height="50" viewBox="0 0 163 171" fill="none" xmlns="http://www.w3.org/2000/svg">
    <path d="M160.914 75.228L128.791 10.272C126.01 4.63172 119.169 0 113.576 0H49.3922C43.8305 0 36.9583 4.63172 34.1774 10.272L2.08565 75.228C-0.695215 80.8683 -0.695215 90.0944 2.08565 95.7346L34.1774 160.728C36.9583 166.368 43.7986 171 49.3922 171H113.608C119.169 171 126.01 166.368 128.823 160.728L160.914 95.7346C163.695 90.0944 163.695 80.8683 160.914 75.228ZM74.5478 35.9332C74.5478 31.675 77.5205 28.2012 81.1644 28.2012C84.8083 28.2012 87.7809 31.675 87.7809 35.9332V82.1383C87.7809 86.3965 84.8083 89.8703 81.1644 89.8703C77.5205 89.8703 74.5478 86.3965 74.5478 82.1383V35.9332ZM81.1644 134.581C56.4243 134.581 36.287 111.049 36.287 82.1383C36.319 65.5537 43.0314 49.9777 54.4106 40.0419C57.0316 37.7634 60.7075 38.3984 62.6573 41.4613C64.6071 44.5242 64.0637 48.8198 61.4426 51.0983C46.7712 63.8355 43.7027 88.0773 54.6024 105.222C65.5021 122.367 86.2466 125.953 100.918 113.216C109.325 105.932 114.279 94.3899 114.279 82.1383C114.247 69.8493 109.261 58.3073 100.79 50.9862C98.1692 48.7451 97.6258 44.4122 99.5436 41.3493C101.461 38.2864 105.169 37.6514 107.79 39.8925C119.265 49.791 126.01 65.479 126.042 82.1383C126.042 111.086 105.904 134.581 81.1644 134.581Z" fill="#6DB33F"/>
</svg>
